<svg width="192" height="52" viewBox="0 0 192 52" fill="none" xmlns="http://www.w3.org/2000/svg">
<path d="M70.636 31.7558H62.4894L60.9406 36.4022H56L64.3944 13.8518H68.7001L77.1409 36.4022H72.2003L70.636 31.7558ZM63.7439 27.9923H69.3815L66.5472 19.5514L63.7439 27.9923Z" fill="#1A1F29"/>
<path d="M88.2296 28.1471H84.528V36.4022H79.8817V13.8518H88.2606C90.9245 13.8518 92.9792 14.4455 94.4248 15.6329C95.8703 16.8203 96.5931 18.4982 96.5931 20.6665C96.5931 22.205 96.2575 23.4904 95.5864 24.523C94.9256 25.5452 93.9188 26.3609 92.5662 26.9701L97.4449 36.1853V36.4022H92.4578L88.2296 28.1471ZM84.528 24.3836H88.2761C89.4428 24.3836 90.3463 24.0893 90.9865 23.5008C91.6266 22.9019 91.9467 22.0811 91.9467 21.0382C91.9467 19.9747 91.6421 19.1384 91.0329 18.5292C90.4341 17.92 89.51 17.6154 88.2606 17.6154H84.528V24.3836Z" fill="#1A1F29"/>
<path d="M116.974 17.6154H110.067V36.4022H105.421V17.6154H98.6059V13.8518H116.974V17.6154Z" fill="#1A1F29"/>
<path d="M132.523 28.4569V36.4022H127.877V13.8518H136.674C138.367 13.8518 139.854 14.1616 141.134 14.7811C142.425 15.4006 143.416 16.2834 144.108 17.4295C144.8 18.5653 145.146 19.8611 145.146 21.317C145.146 23.5266 144.387 25.2716 142.869 26.5519C141.361 27.8219 139.271 28.4569 136.596 28.4569H132.523ZM132.523 24.6933H136.674C137.903 24.6933 138.837 24.4042 139.477 23.826C140.128 23.2478 140.453 22.4218 140.453 21.348C140.453 20.2432 140.128 19.35 139.477 18.6686C138.827 17.9871 137.928 17.636 136.782 17.6154H132.523V24.6933Z" fill="#1A1F29"/>
<path d="M153.416 36.4022H148.924V19.6443H153.416V36.4022ZM148.661 15.3077C148.661 14.6366 148.883 14.0842 149.327 13.6505C149.781 13.2168 150.395 13 151.17 13C151.934 13 152.543 13.2168 152.997 13.6505C153.452 14.0842 153.679 14.6366 153.679 15.3077C153.679 15.9892 153.447 16.5467 152.982 16.9804C152.528 17.414 151.924 17.6309 151.17 17.6309C150.416 17.6309 149.807 17.414 149.342 16.9804C148.888 16.5467 148.661 15.9892 148.661 15.3077Z" fill="#1A1F29"/>
<path d="M161.871 19.6443L162.011 21.5803C163.208 20.0831 164.814 19.3345 166.827 19.3345C168.603 19.3345 169.925 19.856 170.792 20.8988C171.66 21.9417 172.104 23.5008 172.124 25.5761V36.4022H167.648V25.6846C167.648 24.7346 167.442 24.048 167.029 23.6247C166.616 23.191 165.929 22.9742 164.969 22.9742C163.709 22.9742 162.764 23.5111 162.135 24.5849V36.4022H157.659V19.6443H161.871Z" fill="#1A1F29"/>
<path d="M175.516 27.8993C175.516 25.3283 176.125 23.2581 177.343 21.6887C178.572 20.1193 180.224 19.3345 182.299 19.3345C184.137 19.3345 185.567 19.9644 186.589 21.2241L186.775 19.6443H190.833V35.8446C190.833 37.3108 190.497 38.586 189.826 39.6701C189.166 40.7543 188.231 41.5803 187.023 42.1482C185.815 42.7161 184.4 43 182.779 43C181.551 43 180.353 42.7522 179.186 42.2566C178.019 41.7713 177.137 41.1415 176.538 40.3671L178.52 37.6412C179.635 38.8906 180.988 39.5152 182.578 39.5152C183.765 39.5152 184.69 39.1951 185.35 38.555C186.011 37.9251 186.342 37.0268 186.342 35.8601V34.9618C185.309 36.1285 183.951 36.7119 182.268 36.7119C180.255 36.7119 178.623 35.9272 177.374 34.3578C176.135 32.778 175.516 30.6871 175.516 28.0852V27.8993ZM179.992 28.2246C179.992 29.7424 180.296 30.935 180.905 31.8023C181.515 32.6593 182.351 33.0878 183.414 33.0878C184.777 33.0878 185.753 32.5767 186.342 31.5545V24.5075C185.743 23.4853 184.777 22.9742 183.445 22.9742C182.371 22.9742 181.525 23.413 180.905 24.2907C180.296 25.1683 179.992 26.4796 179.992 28.2246Z" fill="#1A1F29"/>
<path d="M38.0952 38.381V40.2857H3.80952V38.381L7.61905 34.5714V23.1429C7.61905 17.2381 11.4857 12.0381 17.1429 10.3619C17.1429 10.1714 17.1429 10 17.1429 9.80952C17.1429 8.79918 17.5442 7.83021 18.2586 7.11578C18.9731 6.40136 19.942 6 20.9524 6C21.9627 6 22.9317 6.40136 23.6461 7.11578C24.3605 7.83021 24.7619 8.79918 24.7619 9.80952C24.7619 10 24.7619 10.1714 24.7619 10.3619C30.4191 12.0381 34.2857 17.2381 34.2857 23.1429V34.5714L38.0952 38.381ZM24.7619 42.1905C24.7619 43.2008 24.3605 44.1698 23.6461 44.8842C22.9317 45.5986 21.9627 46 20.9524 46C19.942 46 18.9731 45.5986 18.2586 44.8842C17.5442 44.1698 17.1429 43.2008 17.1429 42.1905H24.7619ZM35.7143 8.26667L33.0095 10.9714C36.2667 14.1905 38.0952 18.5714 38.0952 23.1429H41.9048C41.9048 17.5619 39.6952 12.1905 35.7143 8.26667ZM0 23.1429H3.80952C3.80952 18.5714 5.6381 14.1905 8.89524 10.9714L6.19048 8.26667C2.20952 12.1905 0 17.5619 0 23.1429Z" fill="#DB152C"/>
</svg>
