<svg width="180" height="180" viewBox="0 0 180 180" fill="none" 
  xmlns="http://www.w3.org/2000/svg">
  <path d="M99 99H81V45H99V99ZM99 135H81V117H99V135ZM90 0C78.181 0 66.4778 2.32792 55.5585 6.85084C44.6392 11.3738 34.7177 18.0031 26.3604 26.3604C9.48211 43.2387 0 66.1305 0 90C0 113.869 9.48211 136.761 26.3604 153.64C34.7177 161.997 44.6392 168.626 55.5585 173.149C66.4778 177.672 78.181 180 90 180C113.869 180 136.761 170.518 153.64 153.64C170.518 136.761 180 113.869 180 90C180 78.181 177.672 66.4778 173.149 55.5585C168.626 44.6392 161.997 34.7177 153.64 26.3604C145.282 18.0031 135.361 11.3738 124.442 6.85084C113.522 2.32792 101.819 0 90 0Z" fill="#FB7772"/>
</svg>
